# xmcd CD database file
#
# Track frame offsets:
#	150
#	26925
#	50925
#	71700
#	96375
#	125100
#	142500
#	159900
#	175575
#	194250
#	219450
#	251625
#	277350
#
# Disc length: 3979 seconds
#
# Revision: 0
# Processed by: cddbd v1.4PL0 Copyright (c) Steve Scherf et al.
# Submitted via: CDex 1.50Beta5
#
DISCID=cb0f890d
DTITLE=Stefan Pelzl's Juju - Southern Sunrise
DYEAR=1996
DGENRE=Jazz
TTITLE0=Mbembe
TTITLE1=Southern Sunrise
TTITLE2=Tunisia
TTITLE3=Without You
TTITLE4=Ausfahrt Simmering
TTITLE5=795 (für Lisbeth)
TTITLE6=Telefon
TTITLE7=Smoker's Club
TTITLE8=Somewhere In The South
TTITLE9=Two Little Friends
TTITLE10=Looking Around
TTITLE11=Just A Dream
TTITLE12=Call XO
EXTD=YEAR: 1996
EXTT0=
EXTT1=
EXTT2=
EXTT3=
EXTT4=
EXTT5=
EXTT6=
EXTT7=
EXTT8=
EXTT9=
EXTT10=
EXTT11=
EXTT12=
PLAYORDER=
